<?xml version="1.0" encoding="UTF-8"?>
<svg width="69px" height="28px" viewBox="0 0 69 28" version="1.1" xmlns="http://www.w3.org/2000/svg" xmlns:xlink="http://www.w3.org/1999/xlink">
    <!-- Generator: Sketch 41.2 (35397) - http://www.bohemiancoding.com/sketch -->
    <title>arrow-next-step</title>
    <desc>Created with Sketch.</desc>
    <defs></defs>
    <g id="Loja" stroke="none" stroke-width="1" fill="none" fill-rule="evenodd">
        <g id="Loja---Comprar-Certificado-Resumo-da-Compra" transform="translate(-258.000000, -420.000000)" fill="#FEDD3C">
            <path d="M322.862945,433.273931 C322.801471,433.134924 322.778765,432.925027 322.671878,432.865215 C321.207035,432.041691 319.754929,431.190476 318.252981,430.440055 C313.661846,428.146703 309.052436,425.889903 304.444687,423.629226 C303.253982,423.04495 302.033372,422.519379 300.845991,421.92735 C300.54693,421.778373 300.262822,421.514203 300.08837,421.230649 C299.97373,421.044567 299.98813,420.690679 300.090586,420.483551 C300.189719,420.282516 300.45555,420.106957 300.683169,420.041606 C300.920756,419.972933 301.218709,419.993424 301.457957,420.07262 C302.129182,420.294146 302.794315,420.541148 303.44228,420.823041 C310.099148,423.718944 316.632515,426.874588 323.082256,430.203576 C324.180473,430.770683 325.234385,431.428063 326.283866,432.084888 C326.821621,432.421609 326.973921,433.131047 326.740764,433.74246 C326.405152,434.624135 325.808692,435.300344 324.89988,435.505256 C323.389624,435.846407 322.136338,436.662731 320.846501,437.434751 C318.416356,438.889072 315.949106,440.28358 313.551083,441.789406 C311.228379,443.248157 308.978778,444.820995 306.687641,446.330143 C306.174254,446.669078 305.635391,446.973677 305.087113,447.253908 C304.740425,447.431129 304.166117,447.139268 303.978374,446.755474 C303.797276,446.384971 303.931853,446.058219 304.143411,445.771343 C304.297926,445.561446 304.50616,445.380349 304.717164,445.223619 C307.488459,443.166192 310.184989,441.009079 313.173934,439.254036 C316.37776,437.373277 319.536172,435.414984 322.711753,433.486043 C322.779872,433.445061 322.812547,433.346481 322.862945,433.273931 Z M286.001175,434.54948 C283.348396,434.677412 280.695064,434.803682 278.042839,434.934382 C273.179781,435.173631 268.303985,435.116034 263.449234,435.596746 C262.13226,435.727447 260.795348,435.670958 259.467851,435.667635 C259.124485,435.667081 258.752875,435.601177 258.44883,435.452754 C258.251118,435.35639 258.099926,435.074498 258.02073,434.84411 C257.919936,434.551696 258.206259,434.030001 258.457691,433.970189 C258.798288,433.888778 259.144423,433.797952 259.491665,433.778569 C263.377792,433.559811 267.265027,433.342162 271.152815,433.148326 C274.51337,432.98052 277.878356,432.892463 281.235588,432.680351 C284.239486,432.489839 287.240061,432.309849 290.253374,432.309295 C292.997532,432.308741 295.74169,432.222346 298.485848,432.163641 C300.433065,432.121551 302.380282,431.995835 304.325838,432.025741 C307.156945,432.069492 309.986945,432.214592 312.816391,432.33477 C313.068377,432.345847 313.322025,432.478762 313.562935,432.583987 C313.869749,432.717457 314.122842,433.348253 314.014848,433.743124 C313.919038,434.09369 313.731848,434.415457 313.337531,434.476377 C312.905001,434.542835 312.458072,434.602093 312.024434,434.572187 C307.335274,434.247651 302.643345,434.425426 297.951416,434.444809 C293.968371,434.461424 289.984219,434.448132 286.000621,434.448132 C286.001175,434.481915 286.001175,434.515698 286.001175,434.54948 Z" id="arrow-next-step"></path>
        </g>
    </g>
</svg>