<?xml version="1.0" encoding="utf-8"?>
<!-- Generator: Adobe Illustrator 19.1.0, SVG Export Plug-In . SVG Version: 6.00 Build 0)  -->
<svg version="1.1" xmlns="http://www.w3.org/2000/svg" xmlns:xlink="http://www.w3.org/1999/xlink" x="0px" y="0px" width="584.3px"
	 height="84.4px" viewBox="0 0 584.3 84.4" style="enable-background:new 0 0 584.3 84.4;" xml:space="preserve">
<style type="text/css">
	.st0{fill:#020202;}
	.st1{fill:url(#SVGID_1_);}
	.st2{fill:url(#SVGID_2_);}
	.st3{fill:url(#SVGID_3_);}
	.st4{fill:url(#SVGID_4_);}
	.st5{fill:url(#SVGID_5_);}
	.st6{fill:url(#SVGID_6_);}
	.st7{fill:#008808;}
	.st8{fill:url(#SVGID_7_);}
	.st9{fill:url(#SVGID_8_);}
	.st10{fill:url(#SVGID_9_);}
	.st11{fill:url(#SVGID_10_);}
	.st12{fill:url(#SVGID_11_);}
	.st13{fill:url(#SVGID_12_);}
	.st14{fill:url(#SVGID_13_);}
	.st15{fill:url(#SVGID_14_);}
	.st16{fill:url(#SVGID_15_);}
	.st17{fill:url(#SVGID_16_);}
	.st18{fill:url(#SVGID_17_);}
	.st19{fill:url(#SVGID_18_);}
	.st20{fill:url(#SVGID_19_);}
	.st21{fill:url(#SVGID_20_);}
	.st22{fill:url(#SVGID_21_);}
	.st23{fill:url(#SVGID_22_);}
	.st24{fill:url(#SVGID_23_);}
	.st25{fill:url(#SVGID_24_);}
	.st26{fill:url(#SVGID_25_);}
	.st27{fill:url(#SVGID_26_);}
</style>
<g id="Layer_1">
</g>
<g id="Camada_2">
</g>
<g id="Camada_3">
</g>
<g id="Camada_4">
	<linearGradient id="SVGID_1_" gradientUnits="userSpaceOnUse" x1="292.1446" y1="83.9151" x2="292.1446" y2="0.5">
		<stop  offset="0" style="stop-color:#B3B3B3"/>
		<stop  offset="0.5" style="stop-color:#FFFFFF"/>
		<stop  offset="1" style="stop-color:#B3B3B3"/>
	</linearGradient>
	<path class="st1" d="M555.2,83.9c-13.8,0-28.6-11-28.6-41.7c0-30.8,14.8-41.7,28.6-41.7s28.6,11,28.6,41.7
		C583.8,73,569,83.9,555.2,83.9L555.2,83.9z M555.2,16.1c-9.7,0-10.7,18.2-10.7,26.1c0,6.1,0.8,26.1,10.7,26.1s10.7-20,10.7-26.1
		C565.9,34.4,564.9,16.1,555.2,16.1L555.2,16.1z M17.5,83.9c-5,0-10.5-1.6-13.9-4.1l-0.2-0.2V63.4l0.8,0.5c4.3,2.9,7.7,4.1,11.7,4.1
		c5.1,0,8.6-3.4,8.6-8.2c0-5-3.4-7.3-7.3-10c-0.6-0.4-1.2-0.8-1.9-1.3C6,42.3,0.5,36.3,0.5,24.5c0-14.1,8.8-24,21.4-24
		c5,0,9.7,1.3,14.2,4l0.2,0.1v16.7l-0.8-0.7c-3.8-3.3-7.5-5-11.1-5c-4.7,0-7.4,2.7-7.4,7.3c0,5.5,4.4,8.8,9.6,12.5
		c6.8,5,14.4,10.6,14.4,23C41,73.9,31.8,83.9,17.5,83.9L17.5,83.9z M473.4,82.6V1.8h12.5c0.1,0,0.4,0,0.6,0c0.6,0,1.4-0.1,2.5-0.1
		c10,0,33.1,4,33.1,41.2c0,26.4-11.5,39.8-34.2,39.8H473.4z M490.4,67.5c11.8,0,15-15.5,15-24.7c0-4.3-0.7-25.3-15.2-25.8v50.5
		C490.1,67.5,490.3,67.5,490.4,67.5z M450.3,82.6l-3-13.5h-15.2l-2.9,13.5h-16.7l18.8-80.9h17.4l19.4,80.9H450.3z M444.8,55.7
		L440.8,35l-1.4-9.4l-1.3,9.4l-3.3,20.7H444.8z M361.3,82.6V1.8h12.5c0.1,0,0.4,0,0.6,0c0.6,0,1.4-0.1,2.5-0.1
		c10,0,33.1,4,33.1,41.2c0,26.4-11.5,39.8-34.2,39.8H361.3z M378.3,67.5c11.8,0,15-15.5,15-24.7c0-4.3-0.7-25.3-15.2-25.8v50.5
		C378.1,67.5,378.2,67.5,378.3,67.5z M335.4,82.6l-18.6-46.1l0.5,5.6l0.1,3.3v37.2h-16.8V1.8h16l18.4,44.9c-0.4-2.6-0.6-5.4-0.6-8.5
		V1.8h16.8v80.9H335.4z M273.6,82.6V1.8h16.8v80.9H273.6z M234.1,82.6V1.8h16.8v65h16.5v15.8H234.1z M183.3,82.6V1.8h16
		c6.4,0,11.8,0.3,16.8,4.5c5.1,4.1,8.3,11.2,8.3,18.4c0,7.1-2.7,12.5-8.1,16.5c6.4,3.6,9.4,12.1,9.4,18.6c0,14.4-9.9,23-26.6,23
		H183.3z M200.2,68.4c5.4,0,9-4.1,9-10.5c0-6-3.6-10.1-9.1-10.1v20.6C200.1,68.4,200.2,68.4,200.2,68.4z M200.1,34.5
		c5.2-0.2,8.4-3.8,8.4-9.6c0-5.5-3.2-8.9-8.3-8.9c-0.1,0-0.1,0-0.2,0V34.5z M120,82.6V1.8h32.8v15.8h-16V34h14.1v15.8h-14.1v17H153
		v15.8H120z M84.5,82.6v-65H72.1V1.8h41.7v15.8h-12.5v65H84.5z M49.1,82.6V1.8h16.8v80.9H49.1z"/>
	<path d="M555.2,1c14.1,0,28.1,11.2,28.1,41.2c0,30-14,41.2-28.1,41.2c-14.1,0-28.1-11.2-28.1-41.2C527.1,12.2,541.1,1,555.2,1
		 M555.2,68.8c10.5,0,11.2-20.2,11.2-26.6c0-7.1-0.7-26.6-11.2-26.6c-10.5,0-11.2,19.5-11.2,26.6C544,48.6,544.7,68.8,555.2,68.8
		 M21.9,1c5.1,0,9.6,1.4,14,3.9v15.4c-3.2-2.8-7.1-5.1-11.4-5.1c-4.9,0-7.9,3-7.9,7.8c0,13.1,24,13.9,24,35.5
		c0,14.2-8.2,24.9-23,24.9c-4.4,0-10-1.4-13.6-4v-15c3.7,2.5,7.3,4.2,12,4.2c5.1,0,9.1-3.4,9.1-8.7c0-6.1-4.9-8.5-9.3-11.7
		C6.6,42.1,1,36.2,1,24.5C1,11.9,8.3,1,21.9,1 M489,2.2c8.9,0,32.6,2.9,32.6,40.7c0,22.8-8.8,39.3-33.7,39.3h-14.1V2.3h12
		C486.3,2.3,487.4,2.2,489,2.2 M490.4,68c12.1,0,15.5-15.5,15.5-25.2c0-10.2-3.2-26.3-16.2-26.3v51.5C489.9,68,490.1,68,490.4,68
		 M376.9,2.2c8.9,0,32.6,2.9,32.6,40.7c0,22.8-8.8,39.3-33.7,39.3h-14.1V2.3h12C374.2,2.3,375.3,2.2,376.9,2.2 M378.3,68
		c12.1,0,15.5-15.5,15.5-25.2c0-10.2-3.2-26.3-16.2-26.3v51.5C377.8,68,378.1,68,378.3,68 M448.3,2.3l19.2,79.9h-16.8l-3-13.5h-16
		l-2.9,13.5h-15.7l18.5-79.9H448.3 M434.2,56.2h11.1l-4-21.3l-1.8-12.1h-0.2l-1.7,12.1L434.2,56.2 M350.7,2.3v79.9h-14.9l-19.5-48.2
		l-0.2,0.2l0.7,8l0.1,3.3v36.7h-15.8V2.3h15.1l19.7,48.2l0.2-0.2c-1-3.8-1.3-7.9-1.3-12.1V2.3H350.7 M289.9,2.3v79.9h-15.8V2.3
		H289.9 M250.3,2.3v65h16.5v14.8h-32.3V2.3H250.3 M199.3,2.3c6.1,0,11.4,0.2,16.5,4.3c5.3,4.2,8.2,11.3,8.2,18
		c0,7.1-2.6,12.5-8.6,16.5c6.6,3.2,9.9,11.7,9.9,18.5c0,15.8-11.7,22.5-26.1,22.5h-15.4V2.3H199.3 M199.6,35c5.9,0,9.4-4,9.4-10.1
		c0-5.6-3.1-9.4-8.8-9.4c-0.2,0-0.4,0-0.7,0V35 M200.2,68.9c6,0,9.5-4.6,9.5-11c0-6.1-3.6-10.6-9.6-10.6c-0.1,0-0.3,0-0.4,0v21.6
		C199.8,68.9,200,68.9,200.2,68.9 M152.3,2.3v14.8h-16v17.4h14.1v14.8h-14.1v18h16.2v14.8h-32V2.3H152.3 M113.3,2.3v14.8h-12.5v65
		H85v-65H72.6V2.3H113.3 M65.4,2.3v79.9H49.6V2.3H65.4 M555.2,0c-14.1,0-29.1,11.1-29.1,42.2c0,31.1,15,42.2,29.1,42.2
		s29.1-11.1,29.1-42.2C584.3,11.1,569.3,0,555.2,0L555.2,0z M555.2,67.8c-9.5,0-10.2-19.6-10.2-25.6c0-7.7,1-25.6,10.2-25.6
		s10.2,17.9,10.2,25.6C565.4,48.2,564.7,67.8,555.2,67.8L555.2,67.8z M21.9,0C15.2,0,9.5,2.6,5.6,7.4C2,11.8,0,17.9,0,24.5
		c0,11.9,5.8,18.2,15.2,24.6c0.6,0.4,1.2,0.9,1.8,1.3c3.8,2.6,7,4.8,7,9.5c0,4.5-3.3,7.7-8.1,7.7c-3.9,0-7.2-1.2-11.4-4.1L3,62.4
		v1.9v15v0.5l0.4,0.3c3.5,2.6,9,4.2,14.2,4.2c14.6,0,24-10.2,24-25.9c0-12.7-7.8-18.3-14.7-23.4c-5-3.7-9.4-6.9-9.4-12.1
		c0-4.3,2.6-6.8,6.9-6.8c3.5,0,7.1,1.6,10.8,4.8l1.7,1.4v-2.2V4.9V4.3l-0.5-0.3C31.7,1.3,27,0,21.9,0L21.9,0z M489,1.2
		c-1.1,0-2,0-2.6,0.1c-0.3,0-0.5,0-0.6,0h-12h-1v1v79.9v1h1h14.1c12.1,0,21.2-3.9,27-11.5c5.1-6.7,7.7-16.4,7.7-28.8
		c0-16.6-4.5-28.4-13.4-35.3C502.5,2.3,494.5,1.2,489,1.2L489,1.2z M490.6,67V17.5c13.5,0.9,14.2,21.1,14.2,25.2
		C504.9,51.7,501.8,66.7,490.6,67L490.6,67z M376.9,1.2c-1.1,0-2,0-2.5,0.1c-0.3,0-0.5,0-0.6,0h-12h-1v1v79.9v1h1h14.1
		c12.1,0,21.2-3.9,27-11.5c5.1-6.7,7.7-16.4,7.7-28.8c0-16.6-4.5-28.4-13.4-35.3C390.4,2.3,382.4,1.2,376.9,1.2L376.9,1.2z
		 M378.6,67V17.5c13.5,0.9,14.2,21.1,14.2,25.2C392.8,51.7,389.8,66.7,378.6,67L378.6,67z M449.1,1.3h-0.8h-16.6h-0.8L430.7,2
		l-18.5,79.9l-0.3,1.2h1.3h15.7h0.8l0.2-0.8l2.7-12.7h14.4l2.8,12.7l0.2,0.8h0.8h16.8h1.3l-0.3-1.2L449.3,2L449.1,1.3L449.1,1.3z
		 M435.4,55.2l3.2-20.1l0.8-6l0.9,6l3.8,20.1H435.4L435.4,55.2z M351.7,1.3h-1h-15.8h-1v1v35.9c0,1.8,0.1,3.5,0.2,5L317.2,1.9
		l-0.3-0.6h-0.7h-15.1h-1v1v79.9v1h1h15.8h1v-1V45.5l-0.1-3.3l0,0l0,0l-0.2-2.2l17.2,42.6l0.3,0.6h0.7h14.9h1v-1V2.3V1.3L351.7,1.3z
		 M290.9,1.3h-1h-15.8h-1v1v79.9v1h1h15.8h1v-1V2.3V1.3L290.9,1.3z M251.3,1.3h-1h-15.8h-1v1v79.9v1h1h32.3h1v-1V67.3v-1h-1h-15.5
		v-64V1.3L251.3,1.3z M199.3,1.3h-15.5h-1v1v79.9v1h1h15.4c16.9,0,27.1-8.8,27.1-23.5c0-6.5-2.8-14.7-9-18.6c5.2-4,7.7-9.4,7.7-16.4
		c0-7.4-3.3-14.6-8.5-18.8C211.2,1.6,205.8,1.3,199.3,1.3L199.3,1.3z M200.6,34V16.5c2.3,0.1,4.1,0.9,5.4,2.3c1.3,1.5,2,3.6,2,6.2
		C208,30.2,205.3,33.6,200.6,34L200.6,34z M200.6,67.9V48.3c2.3,0.1,4.3,1,5.7,2.7c1.5,1.7,2.3,4.1,2.3,6.9
		C208.7,63.9,205.6,67.7,200.6,67.9L200.6,67.9z M153.3,1.3h-1h-31.8h-1v1v79.9v1h1h32h1v-1V67.3v-1h-1h-15.2v-16h13.1h1v-1V34.5v-1
		h-1h-13.1V18.1h15h1v-1V2.3V1.3L153.3,1.3z M114.3,1.3h-1H72.6h-1v1v14.8v1h1H84v64v1h1h15.8h1v-1v-64h11.5h1v-1V2.3V1.3L114.3,1.3
		z M66.4,1.3h-1H49.6h-1v1v79.9v1h1h15.8h1v-1V2.3V1.3L66.4,1.3z"/>
</g>
</svg>
