<svg id="Layer_1" data-name="Layer 1" xmlns="http://www.w3.org/2000/svg" xmlns:xlink="http://www.w3.org/1999/xlink" viewBox="0 0 821.87 208.27"><defs><style>.cls-1{fill:#020202;}.cls-2{fill:url(#linear-gradient);}.cls-3{fill:url(#linear-gradient-2);}.cls-4{fill:url(#linear-gradient-3);}.cls-5{fill:url(#linear-gradient-4);}.cls-6{fill:url(#linear-gradient-5);}.cls-7{fill:url(#linear-gradient-6);}.cls-8{fill:#008808;}.cls-9{fill:url(#radial-gradient);}.cls-10{fill:url(#radial-gradient-2);}.cls-11{fill:url(#radial-gradient-3);}.cls-12{fill:url(#radial-gradient-4);}</style><linearGradient id="linear-gradient" x1="451.62" y1="199.08" x2="451.62" y2="55.24" gradientUnits="userSpaceOnUse"><stop offset="0.6"/><stop offset="0.83" stop-color="#131313"/><stop offset="1" stop-color="#1a1a1a"/></linearGradient><linearGradient id="linear-gradient-2" x1="451.3" y1="162.73" x2="451.3" y2="55.24" gradientUnits="userSpaceOnUse"><stop offset="0" stop-color="#fff" stop-opacity="0"/><stop offset="0.13" stop-color="#fff" stop-opacity="0.06"/><stop offset="0.3" stop-color="#fff" stop-opacity="0.09"/><stop offset="0.56" stop-color="#fff" stop-opacity="0.1"/><stop offset="1" stop-color="#fff" stop-opacity="0.25"/></linearGradient><linearGradient id="linear-gradient-3" x1="545.85" y1="168.87" x2="545.85" y2="85.45" gradientUnits="userSpaceOnUse"><stop offset="0" stop-color="#b3b3b3"/><stop offset="0.5" stop-color="#fff"/><stop offset="1" stop-color="#b3b3b3"/></linearGradient><linearGradient id="linear-gradient-4" x1="148.83" y1="231.2" x2="148.83" y2="22.92" gradientUnits="userSpaceOnUse"><stop offset="0" stop-color="#666"/><stop offset="0.27" stop-color="#4d4d4d"/><stop offset="0.77" stop-color="gray"/><stop offset="1" stop-color="#666"/></linearGradient><linearGradient id="linear-gradient-5" x1="148.83" y1="229.95" x2="148.83" y2="24.04" gradientUnits="userSpaceOnUse"><stop offset="0" stop-color="gray"/><stop offset="0.34" stop-color="#bdbdbd"/><stop offset="0.72" stop-color="#b0b0b0"/><stop offset="1" stop-color="#d9d9d9"/></linearGradient><linearGradient id="linear-gradient-6" x1="148.83" y1="225.82" x2="148.83" y2="28.28" gradientUnits="userSpaceOnUse"><stop offset="0" stop-color="#e6e6e6"/><stop offset="0.2" stop-color="#ccc"/><stop offset="0.61" stop-color="#8c8c8c"/><stop offset="1" stop-color="#fff"/></linearGradient><radialGradient id="radial-gradient" cx="148.81" cy="115.74" r="85.54" gradientUnits="userSpaceOnUse"><stop offset="0" stop-color="#79ff00"/><stop offset="0.77" stop-color="#00cd00"/><stop offset="1" stop-color="#00b300"/></radialGradient><radialGradient id="radial-gradient-2" cx="148.89" cy="114.42" r="75.25" gradientUnits="userSpaceOnUse"><stop offset="0" stop-color="#00de00"/><stop offset="0.91" stop-color="#009f00"/><stop offset="1" stop-color="#009500"/></radialGradient><radialGradient id="radial-gradient-3" cx="149.2" cy="114.54" r="73.86" xlink:href="#radial-gradient-2"/><radialGradient id="radial-gradient-4" cx="148.45" cy="114.54" r="74" xlink:href="#radial-gradient"/></defs><title>logo_siteblindado</title><path class="cls-1" d="M862.25,178.53c0,11.42-11.42,22.83-23,22.83h-776c-11.42,0-22.87-11.42-22.87-22.82V75.79C40.38,64.37,51.83,53,63.13,53H839.42c11.41,0,22.83,11.42,22.83,22.83V178.53Z" transform="translate(-40.38 -22.92)"/><path class="cls-2" d="M860.29,178.62c-2.36,11.27-9.07,18.25-20.75,20.46h-776c-11.39-2.35-18.23-9.33-20.62-20.54V75.78q3.57-17.13,20.51-20.54H839.74c11.34,2.41,18.32,9.25,20.55,20.63V178.62Z" transform="translate(-40.38 -22.92)"/><path class="cls-3" d="M860,131c0,20-81.69,21.71-174.15,23.14S354.67,151.67,241.34,161,42.63,139.92,42.63,116.06V75.78Q46.2,58.65,63.14,55.24H839.42c11.34,2.41,18.32,9.25,20.55,20.63V131Z" transform="translate(-40.38 -22.92)"/><path class="cls-4" d="M808.92,168.87c-13.81,0-28.57-11-28.57-41.71s14.76-41.71,28.57-41.71,28.57,11,28.57,41.71-14.76,41.71-28.57,41.71h0Zm0-67.8c-9.68,0-10.73,18.25-10.73,26.09,0,6.12.77,26.09,10.73,26.09s10.73-20,10.73-26.09c0-7.84-1-26.09-10.73-26.09h0Zm-537.69,67.8c-5,0-10.45-1.62-13.86-4.12l-0.21-.15V148.35l0.78,0.54c4.3,2.95,7.69,4.15,11.69,4.15,5.07,0,8.61-3.37,8.61-8.19,0-5-3.36-7.32-7.26-10-0.62-.42-1.24-0.84-1.86-1.28-9.46-6.37-14.93-12.37-14.93-24.14,0-14.14,8.79-24,21.37-24a27.53,27.53,0,0,1,14.24,4l0.25,0.15v16.74l-0.83-.72c-3.8-3.29-7.54-5-11.11-5-4.66,0-7.45,2.74-7.45,7.34,0,5.5,4.45,8.75,9.6,12.52,6.77,5,14.45,10.57,14.45,23,0,15.43-9.22,25.39-23.49,25.39h0Zm455.84-1.27V86.72h12.47l0.64,0c0.58,0,1.45-.07,2.53-0.07,10,0,33.14,4,33.14,41.17,0,26.41-11.5,39.8-34.19,39.8H727.07Zm17-15.17c11.82,0,15-15.55,15-24.73,0-4.25-.74-25.29-15.21-25.76v50.49h0.23ZM704,167.6l-3-13.45H685.81L683,167.6H666.24L685,86.72h17.42l19.41,80.87H704Zm-5.5-27-3.91-20.7-1.4-9.41-1.32,9.39-3.3,20.72h9.94ZM615,167.6V86.72h12.47l0.64,0c0.58,0,1.45-.07,2.53-0.07,10,0,33.14,4,33.14,41.17,0,26.41-11.5,39.8-34.19,39.8H615Zm17-15.17c11.82,0,15-15.55,15-24.73,0-4.25-.74-25.29-15.21-25.76v50.49H632ZM589.09,167.6l-18.64-46.1,0.52,5.62,0.11,3.31V167.6H554.29V86.72h16l18.37,44.95a58.35,58.35,0,0,1-.57-8.54V86.72h16.79V167.6H589.09Zm-61.81,0V86.72h16.78V167.6H527.28Zm-39.51,0V86.72h16.78v65h16.53V167.6H487.77Zm-50.74,0V86.72h16c6.44,0,11.76.33,16.84,4.45s8.34,11.16,8.34,18.4-2.66,12.49-8.12,16.46c6.45,3.62,9.39,12.06,9.39,18.6,0,14.37-9.93,23-26.56,23H437Zm16.89-14.23c5.44,0,9-4.13,9-10.53,0-6-3.64-10.06-9.06-10.1v20.63h0.11Zm-0.11-33.92c5.21-.22,8.43-3.84,8.43-9.55,0-5.52-3.16-8.95-8.25-8.95h-0.17v18.5ZM373.7,167.6V86.72h32.78v15.83h-16v16.37h14.09v15.83H390.48v17h16.21V167.6h-33Zm-35.49,0v-65H325.82V86.72h41.68v15.83H355v65H338.21Zm-35.38,0V86.72h16.78V167.6H302.83Z" transform="translate(-40.38 -22.92)"/><path d="M808.92,86C823,86,837,97.18,837,127.16s-14,41.21-28.07,41.21-28.07-11.23-28.07-41.21S794.84,86,808.92,86m0,67.8c10.49,0,11.23-20.23,11.23-26.59,0-7.1-.74-26.59-11.23-26.59s-11.23,19.49-11.23,26.59c0,6.36.74,26.59,11.23,26.59M275.58,86a27,27,0,0,1,14,3.92v15.36c-3.18-2.75-7.1-5.08-11.44-5.08-4.87,0-7.95,3-7.95,7.84,0,13.14,24,13.88,24,35.49,0,14.2-8.16,24.89-23,24.89-4.45,0-10-1.38-13.56-4v-15c3.71,2.54,7.31,4.24,12,4.24,5.08,0,9.11-3.39,9.11-8.69,0-6.14-4.87-8.47-9.32-11.65-9.11-6.14-14.72-12.08-14.72-23.73C254.71,96.86,262,86,275.58,86M742.7,87.13c8.93,0,32.64,2.89,32.64,40.67,0,22.78-8.79,39.3-33.69,39.3H727.57V87.22h12c0.42,0,1.55-.09,3.16-0.09m1.38,65.79c12.11,0,15.47-15.47,15.47-25.23,0-10.17-3.18-26.27-16.21-26.27V152.9l0.73,0M630.62,87.13c8.93,0,32.64,2.89,32.64,40.67,0,22.78-8.79,39.3-33.69,39.3H615.49V87.22h12c0.42,0,1.55-.09,3.16-0.09M632,152.92c12.11,0,15.47-15.47,15.47-25.23,0-10.17-3.18-26.27-16.21-26.27V152.9l0.73,0m70-65.7,19.17,79.87H704.37l-3-13.45h-16l-2.86,13.45H666.87l18.54-79.87H702m-14.09,53.92h11.12l-4-21.29-1.8-12.08H693l-1.7,12.08-3.39,21.29M604.37,87.22V167.1H589.43l-19.49-48.2-0.21.21,0.74,8,0.11,3.28V167.1H554.79V87.22h15.15l19.7,48.2,0.21-.21a50.17,50.17,0,0,1-1.27-12.08V87.22h15.79m-60.8,0V167.1H527.78V87.22h15.78m-39.51,0v65h16.53V167.1H488.27V87.22h15.78m-51.06,0c6.14,0,11.44.21,16.53,4.34,5.3,4.24,8.16,11.33,8.16,18,0,7.1-2.65,12.5-8.58,16.53,6.57,3.18,9.85,11.65,9.85,18.54,0,15.78-11.65,22.46-26.06,22.46H437.53V87.22H453M453.31,120c5.93,0,9.43-4,9.43-10.06,0-5.61-3.14-9.45-8.75-9.45l-0.67,0V120m0.61,33.91c6,0,9.46-4.57,9.46-11,0-6.11-3.64-10.6-9.65-10.6h-0.41v21.61h0.61M406,87.22v14.83H390v17.37h14.09v14.83H390v18h16.21V167.1h-32V87.22H406m-39,0v14.83h-12.5v65H338.71v-65H326.32V87.22H367m-47.88,0V167.1H303.33V87.22h15.78M808.92,85c-14.05,0-29.07,11.09-29.07,42.21s15,42.21,29.07,42.21S838,158.28,838,127.16,823,85,808.92,85h0Zm0,67.8c-9.49,0-10.23-19.59-10.23-25.59,0-7.69,1-25.59,10.23-25.59s10.23,17.9,10.23,25.59c0,6-.74,25.59-10.23,25.59h0ZM275.58,85a20.3,20.3,0,0,0-16.29,7.4c-3.6,4.39-5.58,10.47-5.58,17.12,0,11.93,5.8,18.24,15.16,24.56,0.6,0.43,1.22.85,1.84,1.27,3.78,2.57,7,4.78,7,9.55,0,4.53-3.34,7.69-8.11,7.69-3.89,0-7.2-1.18-11.4-4.06l-1.57-1.07v17.45l0.41,0.3c3.49,2.56,9,4.22,14.15,4.22,14.57,0,24-10.16,24-25.89,0-12.65-7.79-18.34-14.65-23.37-5-3.69-9.39-6.87-9.39-12.12,0-4.28,2.6-6.84,6.95-6.84,3.45,0,7.08,1.63,10.79,4.84l1.66,1.43V89.3l-0.5-.29A28,28,0,0,0,275.58,85h0ZM742.7,86.13c-1.09,0-2,0-2.55.07l-0.61,0h-13V168.1h15.09c12.09,0,21.17-3.87,27-11.5,5.12-6.72,7.71-16.41,7.71-28.8,0-16.56-4.5-28.44-13.36-35.29-6.82-5.27-14.79-6.38-20.28-6.38h0Zm1.65,65.79V102.45c13.51,0.95,14.21,21.12,14.21,25.24,0,8.93-3,24-14.21,24.23h0ZM630.62,86.13c-1.09,0-2,0-2.55.07l-0.61,0h-13V168.1h15.09c12.09,0,21.16-3.87,27-11.5,5.12-6.72,7.71-16.41,7.71-28.8,0-16.56-4.5-28.44-13.36-35.29-6.82-5.27-14.79-6.38-20.28-6.38h0Zm1.65,65.79V102.45c13.51,0.95,14.21,21.12,14.21,25.24,0,8.93-3,24-14.21,24.23h0Zm70.55-65.69H684.61l-0.18.77-18.54,79.87-0.28,1.23h17.75l0.17-.79,2.69-12.66H700.6l2.79,12.67,0.17,0.78h18.91l-0.29-1.23L703,87l-0.18-.77h0Zm-13.71,53.92L692.33,120l0.84-6,0.89,6,3.81,20.14h-8.75ZM605.37,86.22H587.58v36.91c0,1.78.06,3.46,0.18,5l-16.9-41.33-0.25-.62H553.79V168.1h17.78V130.44l-0.11-3.32v-0.06l-0.21-2.24,17.25,42.64,0.25,0.63h16.61V86.22h0Zm-60.8,0H526.78V168.1h17.78V86.22h0Zm-39.51,0H487.27V168.1h34.31V151.27H505.05v-65h0Zm-52.06,0H436.53V168.1h16.36c16.94,0,27.06-8.77,27.06-23.46,0-6.46-2.83-14.74-9-18.65,5.2-4,7.73-9.41,7.73-16.41,0-7.38-3.27-14.58-8.53-18.79S459.53,86.22,453,86.22h0Zm1.32,32.69V101.45a7.31,7.31,0,0,1,5.41,2.28,9.05,9.05,0,0,1,2,6.16c0,5.31-2.76,8.61-7.43,9h0Zm0,33.95V133.25a8,8,0,0,1,5.74,2.65,10.28,10.28,0,0,1,2.32,6.93c0,6-3.08,9.84-8.06,10h0ZM407,86.22H373.2V168.1h34V151.27H391v-16h14.09V118.43H391V103.05h16V86.22h0Zm-39,0H325.32v16.83h12.39v65h17.78v-65H368V86.22h0Zm-47.88,0H302.33V168.1h17.78V86.22h0Z" transform="translate(-40.38 -22.92)"/><path d="M97.61,188.29c3.71,4.77,7.5,9.13,11.23,13.08h80.07c3.73-4,7.52-8.31,11.23-13.08,20.92-26.88,43.29-72,32.77-135.34H64.84C54.32,116.32,76.69,161.42,97.61,188.29Z" transform="translate(-40.38 -22.92)"/><path class="cls-5" d="M148.78,22.92l-0.17,0c-50.73,7.89-80.38,25-80.68,25.2l-0.12.07-0.42.25L67.3,49l0,0.13C55.13,113.93,77.77,159.9,98.89,187c22.92,29.45,49,43.67,49.28,43.8l0.14,0.08,0.52,0.27,0.52-.27,0.13-.07c0.27-.14,26.44-14.46,49.28-43.81,21.12-27.14,43.76-73.11,31.62-138l0-.13-0.09-.49-0.43-.25-0.11-.06c-0.3-.18-30.1-17.33-80.77-25.2l-0.17,0h0Z" transform="translate(-40.38 -22.92)"/><path class="cls-6" d="M149,229.88c0.26-.14,26.2-14.3,48.93-43.51,21-27,43.47-72.63,31.4-137.07l0-.13-0.11-.07c-0.29-.17-29.64-17.18-80.38-25.06-50.65,7.88-80,24.89-80.29,25.06l-0.11.07,0,0.13C56.3,113.74,78.78,159.4,99.76,186.37c22.74,29.21,48.67,43.37,48.93,43.51l0.13,0.07Z" transform="translate(-40.38 -22.92)"/><path class="cls-7" d="M148.79,28.28l-0.16,0c-48,7.47-76.24,23.73-76.52,23.9L72,52.27l-0.4.24L71.5,53l0,0.12c-11.52,61.51,10,105.11,30,130.86,21.74,27.93,46.49,41.41,46.74,41.55l0.13,0.07,0.49,0.26,0.49-.26,0.13-.07c0.26-.14,25.08-13.71,46.74-41.55,20-25.75,41.5-69.35,30-130.85l0-.12-0.09-.47-0.41-.24-0.1-.06c-0.29-.17-28.62-16.45-76.61-23.9l-0.16,0h0Z" transform="translate(-40.38 -22.92)"/><path class="cls-8" d="M193.32,180.84c19-24.46,39.42-65.87,28.48-124.31l0-.12-0.1-.06c-0.27-.15-26.88-15.58-72.89-22.72C102.85,40.77,76.24,56.2,76,56.35l-0.1.06,0,0.12C64.91,115,85.3,156.39,104.33,180.84c20.62,26.49,44.14,39.33,44.37,39.46l0.12,0.07,0.12-.07C149.18,220.17,172.7,207.33,193.32,180.84Z" transform="translate(-40.38 -22.92)"/><path class="cls-9" d="M76.54,56.86c-4,21.21-3.86,40.22-1.08,57.11,0.29,1.75.17,1,.17,1h73.16l0-81C102.63,41.2,76.54,56.86,76.54,56.86Z" transform="translate(-40.38 -22.92)"/><path class="cls-10" d="M221.16,57c4.05,21.64,3.86,41,.91,58.15H148.91l0-81C195.07,41.35,221.16,57,221.16,57Z" transform="translate(-40.38 -22.92)"/><path class="cls-11" d="M148.83,220.09V115H75.63C86.91,185.94,148.83,220.09,148.83,220.09Z" transform="translate(-40.38 -22.92)"/><path class="cls-12" d="M217,135.41s4.21-14.83,5.05-20.4h-73.2V220.09S198.11,193.24,217,135.41Z" transform="translate(-40.38 -22.92)"/></svg>