<?xml version="1.0" encoding="utf-8"?>
<!-- Generator: Adobe Illustrator 19.1.0, SVG Export Plug-In . SVG Version: 6.00 Build 0)  -->
<svg version="1.1" xmlns="http://www.w3.org/2000/svg" xmlns:xlink="http://www.w3.org/1999/xlink" x="0px" y="0px" width="169.9px"
	 height="208.3px" viewBox="0 0 169.9 208.3" style="enable-background:new 0 0 169.9 208.3;" xml:space="preserve">
<style type="text/css">
	.st0{fill:#020202;}
	.st1{fill:url(#SVGID_1_);}
	.st2{fill:url(#SVGID_2_);}
	.st3{fill:url(#SVGID_3_);}
	.st4{fill:url(#SVGID_4_);}
	.st5{fill:url(#SVGID_5_);}
	.st6{fill:url(#SVGID_6_);}
	.st7{fill:#008808;}
	.st8{fill:url(#SVGID_7_);}
	.st9{fill:url(#SVGID_8_);}
	.st10{fill:url(#SVGID_9_);}
	.st11{fill:url(#SVGID_10_);}
	.st12{fill:url(#SVGID_11_);}
	.st13{fill:url(#SVGID_12_);}
	.st14{fill:url(#SVGID_13_);}
	.st15{fill:url(#SVGID_14_);}
	.st16{fill:url(#SVGID_15_);}
	.st17{fill:url(#SVGID_16_);}
	.st18{fill:url(#SVGID_17_);}
	.st19{fill:url(#SVGID_18_);}
	.st20{fill:url(#SVGID_19_);}
	.st21{fill:url(#SVGID_20_);}
	.st22{fill:url(#SVGID_21_);}
	.st23{fill:url(#SVGID_22_);}
	.st24{fill:url(#SVGID_23_);}
	.st25{fill:url(#SVGID_24_);}
	.st26{fill:url(#SVGID_25_);}
	.st27{fill:url(#SVGID_26_);}
</style>
<g id="Layer_1">
</g>
<g id="Camada_2">
	<g>
		<linearGradient id="SVGID_1_" gradientUnits="userSpaceOnUse" x1="84.9565" y1="208.2734" x2="84.9565" y2="2.728484e-12">
			<stop  offset="0" style="stop-color:#666666"/>
			<stop  offset="0.2699" style="stop-color:#4D4D4D"/>
			<stop  offset="0.773" style="stop-color:#808080"/>
			<stop  offset="1" style="stop-color:#666666"/>
		</linearGradient>
		<path class="st1" d="M84.9,0l-0.2,0C34,7.9,4.4,25,4.1,25.2l-0.1,0.1l-0.4,0.3L3.4,26l0,0.1C-8.7,91,13.9,137,35,164.1
			c22.9,29.4,49,43.7,49.3,43.8l0.1,0.1l0.5,0.3l0.5-0.3l0.1-0.1c0.3-0.1,26.4-14.5,49.3-43.8C156,137,178.6,91,166.5,26.2l0-0.1
			l-0.1-0.5l-0.4-0.3l-0.1-0.1C165.6,25,135.8,7.9,85.1,0L84.9,0L84.9,0z"/>
		<g>
			<linearGradient id="SVGID_2_" gradientUnits="userSpaceOnUse" x1="84.9555" y1="207.0234" x2="84.9555" y2="1.1162">
				<stop  offset="0" style="stop-color:#808080"/>
				<stop  offset="0.3374" style="stop-color:#BDBDBD"/>
				<stop  offset="0.7178" style="stop-color:#B0B0B0"/>
				<stop  offset="1" style="stop-color:#D9D9D9"/>
			</linearGradient>
			<path class="st2" d="M85.1,207c0.3-0.1,26.2-14.3,48.9-43.5c21-27,43.5-72.6,31.4-137.1l0-0.1l-0.1-0.1C165,26,135.7,9,84.9,1.1
				C34.3,9,4.9,26,4.6,26.2l-0.1,0.1l0,0.1C-7.6,90.8,14.9,136.5,35.9,163.4c22.7,29.2,48.7,43.4,48.9,43.5L85,207L85.1,207z"/>
		</g>
		<linearGradient id="SVGID_3_" gradientUnits="userSpaceOnUse" x1="84.9566" y1="202.8984" x2="84.9566" y2="5.3584">
			<stop  offset="0" style="stop-color:#E6E6E6"/>
			<stop  offset="0.1963" style="stop-color:#CCCCCC"/>
			<stop  offset="0.6074" style="stop-color:#8C8C8C"/>
			<stop  offset="1" style="stop-color:#FFFFFF"/>
		</linearGradient>
		<path class="st3" d="M84.9,5.4l-0.2,0c-48,7.5-76.2,23.7-76.5,23.9l-0.1,0.1l-0.4,0.2L7.6,30l0,0.1c-11.5,61.5,10,105.1,30,130.9
			c21.7,27.9,46.5,41.4,46.7,41.5l0.1,0.1l0.5,0.3l0.5-0.3l0.1-0.1c0.3-0.1,25.1-13.7,46.7-41.5c20-25.7,41.5-69.3,30-130.8l0-0.1
			l-0.1-0.5l-0.4-0.2l-0.1-0.1c-0.3-0.2-28.6-16.5-76.6-23.9L84.9,5.4L84.9,5.4z"/>
		<path class="st7" d="M129.5,157.9c19-24.5,39.4-65.9,28.5-124.3l0-0.1l-0.1-0.1c-0.3-0.2-26.9-15.6-72.9-22.7
			C39,17.8,12.4,33.3,12.1,33.4L12,33.5l0,0.1C1,92,21.4,133.5,40.5,157.9c20.6,26.5,44.1,39.3,44.4,39.5l0.1,0.1l0.1-0.1
			C85.3,197.2,108.8,184.4,129.5,157.9z"/>
		<g>
			<radialGradient id="SVGID_4_" cx="84.9386" cy="92.8184" r="85.5417" gradientUnits="userSpaceOnUse">
				<stop  offset="0" style="stop-color:#79FF00"/>
				<stop  offset="0.773" style="stop-color:#00CD00"/>
				<stop  offset="1" style="stop-color:#00B300"/>
			</radialGradient>
			<path class="st4" d="M12.7,33.9c-4,21.2-3.9,40.2-1.1,57.1c0.3,1.7,0.2,1,0.2,1l73.2,0l0-81C38.8,18.3,12.7,33.9,12.7,33.9z"/>
			<radialGradient id="SVGID_5_" cx="85.02" cy="91.4948" r="75.2518" gradientUnits="userSpaceOnUse">
				<stop  offset="0" style="stop-color:#00DE00"/>
				<stop  offset="0.908" style="stop-color:#009F00"/>
				<stop  offset="1" style="stop-color:#009500"/>
			</radialGradient>
			<path class="st5" d="M157.3,34.1c4.1,21.6,3.9,41,0.9,58.2l-73.2,0l0-81C131.2,18.4,157.3,34.1,157.3,34.1z"/>
			<radialGradient id="SVGID_6_" cx="85.3305" cy="91.6117" r="73.8616" gradientUnits="userSpaceOnUse">
				<stop  offset="0" style="stop-color:#00DE00"/>
				<stop  offset="0.908" style="stop-color:#009F00"/>
				<stop  offset="1" style="stop-color:#009500"/>
			</radialGradient>
			<path class="st6" d="M85,197.2V92.1H11.8C23,163,85,197.2,85,197.2z"/>
			<radialGradient id="SVGID_7_" cx="84.5819" cy="91.6117" r="73.9955" gradientUnits="userSpaceOnUse">
				<stop  offset="0" style="stop-color:#79FF00"/>
				<stop  offset="0.773" style="stop-color:#00CD00"/>
				<stop  offset="1" style="stop-color:#00B300"/>
			</radialGradient>
			<path class="st8" d="M153.1,112.5c0,0,4.2-14.8,5.1-20.4H85v105.1C85,197.2,134.2,170.3,153.1,112.5z"/>
		</g>
	</g>
</g>
<g id="Camada_3">
</g>
<g id="Camada_4">
</g>
</svg>
