<?xml version="1.0" encoding="UTF-8" standalone="no"?>
<svg width="34px" height="27px" viewBox="0 0 34 27" version="1.1" xmlns="http://www.w3.org/2000/svg" xmlns:xlink="http://www.w3.org/1999/xlink">
    <!-- Generator: sketchtool 41.2 (35397) - http://www.bohemiancoding.com/sketch -->
    <title>180B58BF-8CAE-4663-8653-140500E208CE</title>
    <desc>Created with sketchtool.</desc>
    <defs></defs>
    <g id="Loja" stroke="none" stroke-width="1" fill="none" fill-rule="evenodd">
        <g id="Loja---Comprar-Certificado-Resumo-da-Compra" transform="translate(-624.000000, -418.000000)">
            <g id="ic_email" transform="translate(621.500000, 412.000000)">
                <g id="Icon-24px">
                    <path d="M32.5,6.5 L6.5,6.5 C4.7125,6.5 3.26625,7.9625 3.26625,9.75 L3.25,29.25 C3.25,31.0375 4.7125,32.5 6.5,32.5 L32.5,32.5 C34.2875,32.5 35.75,31.0375 35.75,29.25 L35.75,9.75 C35.75,7.9625 34.2875,6.5 32.5,6.5 L32.5,6.5 Z M32.5,13 L19.5,21.125 L6.5,13 L6.5,9.75 L19.5,17.875 L32.5,9.75 L32.5,13 L32.5,13 Z" id="Shape" fill="#21272E"></path>
                    <polygon id="Shape" points="0 0 39 0 39 39 0 39"></polygon>
                </g>
            </g>
        </g>
    </g>
</svg>