<?xml version="1.0" encoding="UTF-8" standalone="no"?>
<svg width="56px" height="36px" viewBox="0 0 56 36" version="1.1" xmlns="http://www.w3.org/2000/svg" xmlns:xlink="http://www.w3.org/1999/xlink">
    <!-- Generator: sketchtool 41.2 (35397) - http://www.bohemiancoding.com/sketch -->
    <title>99809A63-9E44-4905-9F1F-F3DF8CF48564</title>
    <desc>Created with sketchtool.</desc>
    <defs></defs>
    <g id="Loja" stroke="none" stroke-width="1" fill="none" fill-rule="evenodd">
        <g id="Loja---Comprar-Certificado-Resumo-da-Compra" transform="translate(-382.000000, -415.000000)">
            <g id="icon-users" transform="translate(380.000000, 403.000000)">
                <g id="Icon-24px">
                    <polygon id="Shape" points="0 0 60 0 60 60 0 60"></polygon>
                    <path d="M40,27.5 C44.15,27.5 47.475,24.15 47.475,20 C47.475,15.85 44.15,12.5 40,12.5 C35.85,12.5 32.5,15.85 32.5,20 C32.5,24.15 35.85,27.5 40,27.5 L40,27.5 Z M20,27.5 C24.15,27.5 27.475,24.15 27.475,20 C27.475,15.85 24.15,12.5 20,12.5 C15.85,12.5 12.5,15.85 12.5,20 C12.5,24.15 15.85,27.5 20,27.5 L20,27.5 Z M20,32.5 C14.175,32.5 2.5,35.425 2.5,41.25 L2.5,47.5 L37.5,47.5 L37.5,41.25 C37.5,35.425 25.825,32.5 20,32.5 L20,32.5 Z M40,32.5 C39.275,32.5 38.45,32.55 37.575,32.625 C40.475,34.725 42.5,37.55 42.5,41.25 L42.5,47.5 L57.5,47.5 L57.5,41.25 C57.5,35.425 45.825,32.5 40,32.5 L40,32.5 Z" id="Shape" fill="#21272E"></path>
                </g>
            </g>
        </g>
    </g>
</svg>