<?xml version="1.0" encoding="UTF-8" standalone="no"?>
<svg width="30px" height="30px" viewBox="0 0 30 30" version="1.1" xmlns="http://www.w3.org/2000/svg" xmlns:xlink="http://www.w3.org/1999/xlink">
    <!-- Generator: sketchtool 41.2 (35397) - http://www.bohemiancoding.com/sketch -->
    <title>D50FAFE3-1E77-4294-AF45-A049BB8C0C3B</title>
    <desc>Created with sketchtool.</desc>
    <defs></defs>
    <g id="Loja" stroke="none" stroke-width="1" fill="none" fill-rule="evenodd">
        <g id="Loja---Comprar-Certificado-Resumo-da-Compra" transform="translate(-199.000000, -420.000000)" fill="#21272E">
            <g id="icon-check-circle-greydark" transform="translate(199.000000, 420.000000)">
                <path d="M8.85,12.15 L6.75,14.25 L13.5,21 L28.5,6 L26.4,3.9 L13.5,16.8 L8.85,12.15 L8.85,12.15 Z M27,15 C27,21.6 21.6,27 15,27 C8.4,27 3,21.6 3,15 C3,8.4 8.4,3 15,3 C16.2,3 17.25,3.15 18.3,3.45 L20.7,1.05 C18.9,0.45 16.95,0 15,0 C6.75,0 0,6.75 0,15 C0,23.25 6.75,30 15,30 C23.25,30 30,23.25 30,15 L27,15 L27,15 Z" id="Shape"></path>
            </g>
        </g>
    </g>
</svg>